<svg xmlns="http://www.w3.org/2000/svg" width="24" height="24" viewBox="0 0 13 13">
<path d="M12.7867 5.79132L10.15 8.06652L10.9533 11.4691C10.9977 11.6538 10.9862 11.8475 10.9205 12.0257C10.8548 12.2039 10.7378 12.3587 10.5842 12.4704C10.4305 12.5821 10.2473 12.6458 10.0575 12.6534C9.86766 12.6611 9.67986 12.6123 9.51779 12.5132L6.5588 10.6921L3.59806 12.5132C3.43601 12.6117 3.24843 12.66 3.05896 12.6521C2.86949 12.6442 2.68659 12.5805 2.53329 12.4688C2.38 12.3572 2.26316 12.2027 2.1975 12.0248C2.13183 11.8469 2.12027 11.6535 2.16427 11.4691L2.97052 8.06652L0.333801 5.79132C0.190421 5.66741 0.0867262 5.50399 0.0356661 5.32149C-0.0153939 5.13899 -0.0115559 4.94549 0.0467008 4.76515C0.104958 4.58482 0.215051 4.42565 0.363232 4.30751C0.511414 4.18937 0.691115 4.11751 0.879895 4.10089L4.33693 3.82199L5.67052 0.594645C5.7427 0.418757 5.86556 0.268306 6.02347 0.162421C6.18138 0.0565364 6.36721 0 6.55734 0C6.74746 0 6.93329 0.0565364 7.0912 0.162421C7.24911 0.268306 7.37197 0.418757 7.44415 0.594645L8.77716 3.82199L12.2342 4.10089C12.4233 4.11689 12.6036 4.18835 12.7523 4.30633C12.901 4.4243 13.0116 4.58354 13.0702 4.76409C13.1289 4.94464 13.1329 5.13848 13.0818 5.32131C13.0308 5.50415 12.9269 5.66785 12.7832 5.79191L12.7867 5.79132Z" fill="#E8613A"/>
</svg>