<svg width="395" height="174" viewBox="0 0 395 174" fill="none" xmlns="http://www.w3.org/2000/svg">
<g clip-path="url(#clip0_297_17811)">
<path opacity="0.1" fill-rule="evenodd" clip-rule="evenodd" d="M1.11204 124.98L23.0627 131.727C44.0065 138.441 87.9079 151.936 131.277 151.405C174.645 150.874 219.495 136.385 262.796 137.853C306.097 139.321 349.863 156.814 370.773 164.527L392.656 173.273L395.028 103.313L372.874 102.562C351.727 101.846 307.419 100.344 264.118 98.8756C220.817 97.4077 176.509 95.9057 133.208 94.4378C89.9068 92.9699 45.5988 91.4679 24.4518 90.751L2.29785 90L1.11204 124.98Z" fill="#E8613A"/>
<path fill-rule="evenodd" clip-rule="evenodd" d="M1 127L23 133C44 139 88 151 131 149C174 147 218 131 261 131C304 131 348 147 369 154L391 162V-28H369C348 -28 304 -28 261 -28C218 -28 174 -28 131 -28C88 -28 44 -28 23 -28H1L1 127Z" fill="#E8613A"/>
</g>
<defs>
<clipPath id="clip0_297_17811">
<rect width="395" height="174" fill="white"/>
</clipPath>
</defs>
</svg>
