<svg xmlns="http://www.w3.org/2000/svg" width="28" height="28" viewBox="0 0 26 26">
<path d="M24 11.9974C24.0003 14.1048 23.4455 16.1752 22.3916 18.0001C21.3377 19.8251 19.8217 21.3403 17.9963 22.3934C16.1708 23.4464 14.1002 24.0002 11.9928 23.9989C9.88537 23.9976 7.81545 23.4414 5.99125 22.3862L1.3175 23.9449C1.14131 24.0037 0.952226 24.0122 0.771456 23.9695C0.590685 23.9269 0.425368 23.8347 0.294033 23.7034C0.162698 23.572 0.0705353 23.4067 0.0278747 23.2259C-0.0147859 23.0452 -0.00625864 22.8561 0.052501 22.6799L1.61125 18.0062C0.689886 16.4125 0.147522 14.6282 0.0261242 12.7914C-0.095274 10.9545 0.207548 9.11439 0.911161 7.41332C1.61477 5.71226 2.70031 4.19587 4.08378 2.98149C5.46725 1.76712 7.11156 0.887311 8.88949 0.410147C10.6674 -0.067017 12.5313 -0.128744 14.3369 0.229741C16.1425 0.588226 17.8414 1.35731 19.3022 2.47749C20.763 3.59767 21.9465 5.03891 22.7611 6.6897C23.5757 8.34049 23.9996 10.1566 24 11.9974Z" fill="#E8613A"/>
<path d="M13.0028 3.09594e-07C10.7584 -0.000489452 8.55211 0.58011 6.59865 1.68529C4.6452 2.79046 3.01115 4.38256 1.85555 6.30662C0.699959 8.23069 0.0621895 10.4212 0.00432243 12.6648C-0.0535446 14.9085 0.470462 17.1289 1.52534 19.11L0.106588 23.3662C-0.0109317 23.7186 -0.0279865 24.0968 0.0573348 24.4583C0.142656 24.8199 0.326982 25.1505 0.589652 25.4132C0.852322 25.6759 1.18296 25.8602 1.5445 25.9455C1.90604 26.0308 2.2842 26.0138 2.63659 25.8962L6.89284 24.4775C8.6363 25.4048 10.5681 25.9228 12.5416 25.992C14.5151 26.0613 16.4785 25.68 18.2827 24.8772C20.0868 24.0743 21.6844 22.871 22.9541 21.3586C24.2238 19.8462 25.1322 18.0644 25.6105 16.1484C26.0887 14.2325 26.1242 12.2328 25.7143 10.301C25.3043 8.36934 24.4596 6.55642 23.2444 4.9999C22.0291 3.44337 20.4753 2.18415 18.7007 1.31782C16.9262 0.451486 14.9776 0.000810288 13.0028 3.09594e-07ZM13.0028 24C11.0691 24.0013 9.16921 23.4921 7.49534 22.5238C7.37278 22.4527 7.23652 22.4085 7.09559 22.394C6.95465 22.3796 6.81226 22.3953 6.67784 22.44L2.00284 24L3.56159 19.325C3.60652 19.1907 3.6224 19.0483 3.60818 18.9074C3.59396 18.7665 3.54995 18.6301 3.47909 18.5075C2.26655 16.4111 1.77972 13.9732 2.09412 11.572C2.40852 9.17068 3.50658 6.94027 5.21795 5.22674C6.92932 3.51321 9.15833 2.41234 11.5592 2.0949C13.9601 1.77747 16.3986 2.26122 18.4965 3.47111C20.5944 4.68099 22.2344 6.54939 23.162 8.78644C24.0897 11.0235 24.2532 13.5042 23.6271 15.8436C23.0011 18.1831 21.6205 20.2505 19.6995 21.7253C17.7786 23.2 15.4246 23.9996 13.0028 24Z" fill="#E8613A"/>
</svg>