<svg xmlns="http://www.w3.org/2000/svg" width="28" height="28" viewBox="0 0 26 26">
<path d="M13 0C10.4288 8.88178e-16 7.91543 0.762437 5.77759 2.1909C3.63975 3.61935 1.97351 5.64968 0.989572 8.02512C0.0056327 10.4006 -0.251811 13.0144 0.249797 15.5362C0.751405 18.0579 1.98953 20.3743 3.80762 22.1924C5.6257 24.0105 7.94208 25.2486 10.4638 25.7502C12.9856 26.2518 15.5995 25.9944 17.9749 25.0104C20.3503 24.0265 22.3807 22.3603 23.8091 20.2224C25.2376 18.0846 26 15.5712 26 13C25.9964 9.5533 24.6256 6.24882 22.1884 3.81163C19.7512 1.37445 16.4467 0.00363977 13 0ZM13 24C10.8244 24 8.69767 23.3549 6.88873 22.1462C5.07979 20.9375 3.66989 19.2195 2.83733 17.2095C2.00477 15.1995 1.78693 12.9878 2.21137 10.854C2.63581 8.72022 3.68345 6.7602 5.22183 5.22183C6.76021 3.68345 8.72022 2.6358 10.854 2.21136C12.9878 1.78692 15.1995 2.00476 17.2095 2.83733C19.2195 3.66989 20.9375 5.07979 22.1462 6.88873C23.3549 8.69767 24 10.8244 24 13C23.9967 15.9164 22.8367 18.7123 20.7745 20.7745C18.7123 22.8367 15.9164 23.9967 13 24ZM18.5525 6.105L10.5525 10.105C10.3591 10.2022 10.2022 10.3591 10.105 10.5525L6.10501 18.5525C6.02869 18.705 5.99264 18.8745 6.0003 19.0449C6.00795 19.2153 6.05905 19.3808 6.14874 19.5259C6.23843 19.671 6.36373 19.7907 6.51272 19.8736C6.66172 19.9566 6.82946 20.0001 7.00001 20C7.15525 19.9998 7.30836 19.9638 7.44751 19.895L15.4475 15.895C15.6409 15.7978 15.7979 15.6409 15.895 15.4475L19.895 7.4475C19.9894 7.25966 20.0222 7.04686 19.9887 6.83933C19.9552 6.6318 19.8572 6.4401 19.7085 6.29146C19.5599 6.14282 19.3682 6.0448 19.1607 6.01132C18.9531 5.97785 18.7403 6.01063 18.5525 6.105ZM14.25 14.25L9.23626 16.7638L11.75 11.75L16.7688 9.24125L14.25 14.25Z" fill="#E8613A"/>
<path d="M12 0C9.62663 -1.77636e-15 7.30655 0.703788 5.33316 2.02236C3.35977 3.34094 1.8217 5.21509 0.913451 7.4078C0.00519943 9.60051 -0.232441 12.0133 0.230582 14.3411C0.693605 16.6689 1.83649 18.807 3.51472 20.4853C5.19295 22.1635 7.33115 23.3064 9.65892 23.7694C11.9867 24.2324 14.3995 23.9948 16.5922 23.0866C18.7849 22.1783 20.6591 20.6402 21.9776 18.6668C23.2962 16.6935 24 14.3734 24 12C24 8.8174 22.7357 5.76515 20.4853 3.51472C18.2348 1.26428 15.1826 2.66454e-15 12 0ZM14 14L6.00001 18L10 10L18 6L14 14Z" fill="#E8613A"/>
</svg>