<svg xmlns="http://www.w3.org/2000/svg" width="26" height="26" viewBox="0 0 24 25">
<path d="M22 11.0008L22 23.0008L3.09201e-07 23.0008L3.09201e-07 11.0008C-0.000102986 10.8694 0.0256756 10.7393 0.0758637 10.6179C0.126052 10.4965 0.199666 10.3862 0.2925 10.2933L10.2925 0.293287C10.3854 0.20031 10.4957 0.126551 10.6171 0.0762269C10.7385 0.0259027 10.8686 8.88178e-16 11 0C11.1314 8.88178e-16 11.2615 0.0259027 11.3829 0.0762269C11.5043 0.126551 11.6146 0.20031 11.7075 0.293287L21.7075 10.2933C21.8003 10.3862 21.8739 10.4965 21.9241 10.6179C21.9743 10.7393 22.0001 10.8694 22 11.0008Z" fill="#E8613A"/>
<path d="M23.4138 10.5853L13.4138 0.585323C13.0387 0.210534 12.5302 -4.44089e-16 12 0C11.4698 -4.44089e-16 10.9613 0.210534 10.5863 0.585323L0.586262 10.5853C0.399643 10.7706 0.251711 10.991 0.151067 11.234C0.0504232 11.4769 -0.000923321 11.7374 1.25669e-05 12.0003L1.25669e-05 24.0003C1.25669e-05 24.2655 0.10537 24.5199 0.292906 24.7074C0.480442 24.895 0.734796 25.0003 1.00001 25.0003L23 25.0003C23.2652 25.0003 23.5196 24.895 23.7071 24.7074C23.8947 24.5199 24 24.2655 24 24.0003L24 12.0003C24.0009 11.7374 23.9496 11.4769 23.849 11.234C23.7483 10.991 23.6004 10.7706 23.4138 10.5853ZM22 23.0003L2.00001 23.0003L2.00001 12.0003L12 2.00032L22 12.0003L22 23.0003Z" fill="#E8613A"/>
</svg>