<svg xmlns="http://www.w3.org/2000/svg" width="24" height="28" viewBox="0 0 22 26">
<path d="M21.7075 7.2925L14.7075 0.2925C14.6146 0.199666 14.5042 0.126052 14.3829 0.0758639C14.2615 0.0256758 14.1314 -0.000102986 14 3.09198e-07L2 3.09198e-07C1.46957 3.09198e-07 0.960859 0.210714 0.585786 0.585787C0.210714 0.960859 1.77636e-15 1.46957 0 2L0 24C8.88178e-16 24.5304 0.210714 25.0391 0.585786 25.4142C0.960859 25.7893 1.46957 26 2 26L20 26C20.5304 26 21.0391 25.7893 21.4142 25.4142C21.7893 25.0391 22 24.5304 22 24L22 8C22.0001 7.86864 21.9743 7.73855 21.9241 7.61715C21.8739 7.49576 21.8003 7.38544 21.7075 7.2925ZM15 3.41375L18.5863 7L15 7L15 3.41375ZM20 24L2 24L2 2L13 2L13 8C13 8.26522 13.1054 8.51957 13.2929 8.70711C13.4804 8.89464 13.7348 9 14 9L20 9L20 24ZM16 14C16 14.2652 15.8946 14.5196 15.7071 14.7071C15.5196 14.8946 15.2652 15 15 15L7 15C6.73478 15 6.48043 14.8946 6.29289 14.7071C6.10536 14.5196 6 14.2652 6 14C6 13.7348 6.10536 13.4804 6.29289 13.2929C6.48043 13.1054 6.73478 13 7 13L15 13C15.2652 13 15.5196 13.1054 15.7071 13.2929C15.8946 13.4804 16 13.7348 16 14ZM16 18C16 18.2652 15.8946 18.5196 15.7071 18.7071C15.5196 18.8946 15.2652 19 15 19L7 19C6.73478 19 6.48043 18.8946 6.29289 18.7071C6.10536 18.5196 6 18.2652 6 18C6 17.7348 6.10536 17.4804 6.29289 17.2929C6.48043 17.1054 6.73478 17 7 17L15 17C15.2652 17 15.5196 17.1054 15.7071 17.2929C15.8946 17.4804 16 17.7348 16 18Z" fill="#E8613A"/>
</svg>